<?xml version="1.0" encoding="utf-8"?>
<!-- Generator: Adobe Illustrator 16.0.3, SVG Export Plug-In . SVG Version: 6.00 Build 0)  -->
<!DOCTYPE svg PUBLIC "-//W3C//DTD SVG 1.1//EN" "http://www.w3.org/Graphics/SVG/1.1/DTD/svg11.dtd">
<svg version="1.1" id="Capa_1" xmlns="http://www.w3.org/2000/svg" xmlns:xlink="http://www.w3.org/1999/xlink" x="0px" y="0px"
	 width="792px" height="792px" viewBox="-310.5 -310.5 792 792" enable-background="new -310.5 -310.5 792 792"
	 xml:space="preserve">
<path fill="#FFFFFF" d="M404.258-208.739c40.611,0,73.561,32.933,73.561,73.56c0,23.14-10.88,44.902-29.422,58.849L114.922,173.771
	c-17.467,13.026-41.375,13.026-58.847,0L-277.394-76.33c-18.524-13.947-29.424-35.709-29.424-58.849
	c0-40.627,32.933-73.56,73.56-73.56H404.258z M26.651,213.002c34.942,26.204,82.754,26.204,117.696,0L477.818-37.1v318.759
	c0,54.095-43.984,98.079-98.08,98.079h-588.477c-54.173,0-98.08-43.984-98.08-98.079V-37.1L26.651,213.002z"/>
</svg>
