<?xml version="1.0" encoding="utf-8"?>
<!-- Generator: Adobe Illustrator 16.0.3, SVG Export Plug-In . SVG Version: 6.00 Build 0)  -->
<!DOCTYPE svg PUBLIC "-//W3C//DTD SVG 1.1//EN" "http://www.w3.org/Graphics/SVG/1.1/DTD/svg11.dtd">
<svg version="1.1" id="Capa_1" xmlns="http://www.w3.org/2000/svg" xmlns:xlink="http://www.w3.org/1999/xlink" x="0px" y="0px"
	 width="792px" height="792px" viewBox="-310.5 -310.5 792 792" enable-background="new -310.5 -310.5 792 792"
	 xml:space="preserve">
<path fill="#FFFFFF" d="M-276.126,230.639l165.5-70.959c19.495-8.434,42.359-2.747,55.599,13.701l67.254,82.092
	c105.629-51.861,191.432-137.754,243.294-243.292l-82.083-67.175c-16.396-13.394-21.979-36.135-13.688-55.628l70.946-165.5
	c9.295-21.219,32.185-32.826,54.592-27.625l153.756,35.464c21.734,4.958,36.938,24.1,36.938,46.463
	c0,384.846-312.999,697.845-697.842,697.845c-22.376,0-41.458-15.204-46.447-36.947l-35.464-153.752
	C-308.908,262.979-297.332,239.791-276.126,230.639z"/>
</svg>
