<?xml version="1.0" standalone="no"?>
<!DOCTYPE svg PUBLIC "-//W3C//DTD SVG 20010904//EN"
 "http://www.w3.org/TR/2001/REC-SVG-20010904/DTD/svg10.dtd">
<svg version="1.0" xmlns="http://www.w3.org/2000/svg"
 width="390.414859pt" height="444.886913pt" viewBox="0 0 390.414859 444.886913"
 preserveAspectRatio="xMidYMid meet">
<metadata>
Created by potrace 1.12, written by Peter Selinger 2001-2015
</metadata>
<g transform="translate(-74.292933,474.973773) scale(0.100000,-0.100000)"
fill="#ea0027" stroke="none">
<path d="M4018 4718 c-19 -18 -47 -51 -63 -73 -16 -22 -59 -72 -96 -112 -71
-77 -128 -175 -153 -264 -13 -45 -15 -69 -6 -125 5 -38 10 -113 10 -167 l0
-98 -102 -141 c-56 -77 -107 -142 -113 -144 -6 -3 -49 18 -95 46 -154 91 -354
166 -558 207 -69 14 -135 18 -322 18 -206 -1 -248 -4 -340 -23 -558 -121 -999
-462 -1249 -967 -112 -224 -161 -402 -182 -657 -36 -417 96 -857 362 -1209
263 -347 641 -587 1074 -679 129 -28 420 -38 562 -20 178 22 367 76 533 153
468 215 849 674 974 1173 45 181 51 239 50 459 0 188 -3 223 -27 336 -35 167
-76 290 -143 429 -96 200 -250 408 -390 525 l-60 50 109 140 c59 77 118 145
130 151 12 6 72 17 132 23 134 15 227 35 261 58 30 19 188 222 263 337 112
173 90 227 -96 225 -48 0 -123 -6 -166 -13 -56 -9 -80 -10 -82 -2 -2 6 -15 72
-29 146 -14 74 -30 150 -36 169 -24 84 -92 106 -152 49z m-1348 -1389 c159
-19 335 -76 457 -145 l52 -30 -50 -70 c-28 -38 -57 -77 -64 -88 -13 -18 -18
-17 -103 27 -107 56 -206 84 -333 96 -362 34 -739 -136 -938 -423 -229 -332
-260 -715 -86 -1071 143 -294 421 -505 740 -561 95 -17 267 -18 351 -3 428 77
757 396 839 814 66 340 -29 687 -250 907 -39 39 -54 61 -48 71 21 34 126 167
132 166 3 0 33 -32 66 -70 226 -263 335 -542 335 -858 0 -224 -42 -393 -149
-598 -173 -329 -477 -552 -866 -635 -82 -17 -361 -17 -450 1 -457 90 -831 423
-964 856 -45 149 -55 215 -54 380 0 125 4 168 25 261 99 426 380 750 780 898
204 76 386 99 578 75z m2 -714 c40 -9 76 -19 80 -23 5 -5 -22 -48 -59 -98
l-68 -89 -50 6 c-111 14 -234 -28 -297 -100 -86 -97 -109 -251 -55 -363 36
-74 95 -134 165 -166 48 -23 70 -27 142 -27 71 1 94 5 141 28 144 69 221 237
174 379 -9 29 -26 65 -37 80 -22 32 -25 27 60 137 l65 83 24 -38 c82 -132 113
-227 113 -342 0 -250 -168 -464 -415 -527 -242 -62 -507 67 -615 298 -79 170
-79 311 2 476 38 78 158 204 234 244 108 57 252 72 396 42z"/>
</g>
</svg>
