<?xml version="1.0" standalone="yes"?>
<svg xmlns="http://www.w3.org/2000/svg" width="500" height="500">
<path style="fill:#ffffff; stroke:none;" d="M0 0L0 500L500 500L500 0L0 0z"/>
<path style="fill:#ff8ea4; stroke:none;" d="M156 50C163.159 53.0042 174.256 51 182 51L240 51L440 51C432.841 47.9958 421.744 50 414 50L356 50L156 50z"/>
<path style="fill:#ffecf5; stroke:none;" d="M155 51L155 128C157.395 122.293 156 114.154 156 108L156 69C156 63.3809 157.189 56.2165 155 51z"/>
<path style="fill:#ba001e; stroke:none;" d="M156 51L156 128L345 128C339.784 125.811 332.619 127 327 127L289 127L157 127L157 75C157 67.7845 158.802 57.6777 156 51z"/>
<path style="fill:#bd0625; stroke:none;" d="M157 51C164.159 54.0042 175.256 52 183 52L240 52L439 52C431.841 48.9958 420.744 51 413 51L356 51L157 51z"/>
<path style="fill:#b7001b; stroke:none;" d="M439 51L439 362C441.802 355.322 440 345.216 440 338L440 284L440 120L440 73C440 66.3141 441.599 57.194 439 51z"/>
<path style="fill:#e1082a; stroke:none;" d="M157 52C164.159 55.0042 175.256 53 183 53L240 53L439 53C431.841 49.9958 420.744 52 413 52L356 52L157 52z"/>
<path style="fill:#eb032a; stroke:none;" d="M157 53C157.304 62.2542 165.838 60 173 60L221 60L431 60L431 56C408.629 58.7369 384.548 56.3333 362 56.3333L225.333 56.3333L176 56.3333C170.885 56.3333 161.509 58.1151 158 54L373 54L423 54C427.979 54.0019 437.206 59.1263 439 53L157 53z"/>
<path style="fill:#e9052a; stroke:none;" d="M158 54C158 55.7969 158.014 55.5214 159 57C166.621 55.8171 174.938 56.6667 182.667 56.6667L227.333 56.6667L365.333 56.6667L415.333 56.6667C420.093 56.6667 429.376 58.555 432 54L158 54z"/>
<path style="fill:#ea042b; stroke:none;" d="M431 56L430 62C423.62 60.0739 415.361 61.3333 408.667 61.3333L365.333 61.3333L223.333 61.3333L176 61.3333C171.649 61.3333 162.802 59.483 161 64L432 64L432 262L432 323C432 332.489 430.303 343.877 433 353C435.802 346.322 434 336.216 434 329L434 275L434 131L434 88C434 78.8391 434.749 69.8107 432 61C434.377 61.572 436.558 61.8905 439 62L439 56L431 56z"/>
<path style="fill:#fffffd; stroke:none;" d="M447 58C445.012 83.1834 446 108.711 446 134L446 257L446 320C446 330.076 444.138 342.317 447 352C449.497 346.049 448 337.42 448 331L448 287L448 132L448 81C448 74.049 449.701 64.4362 447 58z"/>
<path style="fill:#ea042a; stroke:none;" d="M157 59L157 127C221.247 127 285.869 125.246 350 128L350 267L350 322C350 331.146 350.953 340.879 349.871 349.961C349.42 353.749 347.53 357.174 347 361L439 361L439 62L432 61C434.773 74.5058 434 88.1819 434 102L434 161L434 353C430.121 345.732 432 335.093 432 327L432 271L432 64L161 64L162 61C168.485 62.6124 175.993 61.6667 182.667 61.6667L220.667 61.6667L344.667 61.6667L402.667 61.6667C411.537 61.6667 422.451 63.3571 431 61C424.806 58.4009 415.686 60 409 60L361 60L224 60L182 60C173.791 60 165.024 60.9104 157 59z"/>
<path style="fill:#ffe0ea; stroke:none;" d="M156 128C161.217 130.189 168.381 129 174 129L212 129L345 129C339.784 126.811 332.619 128 327 128L289 128L156 128z"/>
<path style="fill:#d16573; stroke:none;" d="M345 128L345 362C347.085 357.031 346 350.35 346 345L346 310L346 187L346 147C346 141.113 347.292 133.463 345 128z"/>
<path style="fill:#cf052b; stroke:none;" d="M346 128L346 362L439 362C431.361 358.794 419.271 361 411 361L347 361L347 197L347 150C347 143.314 348.599 134.194 346 128z"/>
<path style="fill:#eb0428; stroke:none;" d="M347 128L347 358C351.176 351.382 350 343.528 350 336L350 293L350 128L347 128z"/>
<path style="fill:#fffeff; stroke:none;" d="M344 129C341.802 136.435 343 145.278 343 153L343 200L343 354C340.802 346.565 342 337.722 342 330L342 283L342 130L153 130C156.204 133.204 159.858 131.267 164 131.028C171.945 130.568 180.041 131 188 131L292 131C302.579 131 313.864 129.719 324 132.722C327.378 133.723 331.121 135.103 332 131C335.203 132.641 336.797 132.641 340 131L340 304C340 317.666 340.095 331.335 340 345C339.968 349.579 337.381 356.356 343 358C343.176 359.878 343.438 361.199 344 363C341.92 364.667 341.577 366.391 341 369C344.216 368.154 346.9 366.026 350.09 365.299C358.923 363.286 369.945 365 379 365L440 365L440 363L345 363L345 198L345 151C345 144.314 346.599 135.194 344 129z"/>
<path style="fill:#fefefe; stroke:none;" d="M332 131C329.251 134.986 325.424 132.094 321.285 132.626C310.851 133.965 300.614 134 290 134L182 134C172.872 134 163.452 133.119 154.424 133.985C150.953 134.318 147.455 133.191 145 136C143.057 135.598 142.943 135.598 141 136C145.787 139.627 154.181 138 160 138C155.147 139.435 150.036 139 145 139C148.888 141.945 154.284 141 159 141L190 141L291 141L318 141C323.215 141 328.319 140.397 333 143C336.741 139.703 336 151.948 336 154L336 193L336 352L338 352L338 133L332 131z"/>
<path style="fill:#fefffd; stroke:none;" d="M338 131L338 352L336 352L336 193L336 155C336 150.132 337.324 144.118 333 141C338.034 165.519 335 192.919 335 218L335 358L338 356C338.578 360.053 338.081 363.93 338 368C340.951 367.045 341.965 365.248 344 363L343 358C338.049 354.938 339.998 348.149 340 343L340 302L340 131L338 131z"/>
<path style="fill:#ff93ab; stroke:none;" d="M138 141L138 220C140.497 214.049 139 205.42 139 199L139 160C139 154.113 140.292 146.462 138 141z"/>
<path style="fill:#e57786; stroke:none;" d="M139 141C144.216 143.189 151.381 142 157 142L196 142L332 142C326.784 139.811 319.619 141 314 141L275 141L139 141z"/>
<path style="fill:#c80428; stroke:none;" d="M139 142L139 219C141.802 212.322 140 202.216 140 195L140 143L331 143C325.784 140.811 318.619 142 313 142L274 142L139 142z"/>
<path style="fill:#b8021c; stroke:none;" d="M331 142L331 449C333.497 443.049 332 434.42 332 428L332 381L332 219L332 166C332 158.784 333.802 148.678 331 142z"/>
<path style="fill:#ea042a; stroke:none;" d="M140 143L140 200C140 205.374 142.087 216.468 137.566 220.397C133.331 224.077 122.291 222 117 222L61 222L61 447C90.6463 443.253 122.107 446 152 446L320 446L320 144L210 144C186.691 144 163.211 144.832 140 143z"/>
<path style="fill:#eb032a; stroke:none;" d="M144 143C148.969 145.085 155.65 144 161 144L196 144L320 144L320 446L64 446C70.6777 448.802 80.7844 447 88 447L140 447L323 447L323 144L328 144L328 447C330.497 441.049 329 432.42 329 426L329 381L329 215L329 168C329 159.77 327.736 150.702 331 143L144 143z"/>
<path style="fill:#fff5ff; stroke:none;" d="M332 143L332 450C334.802 443.322 333 433.216 333 426L333 373L333 211L333 164C333 157.58 334.497 148.951 332 143z"/>
<path style="fill:#ea042b; stroke:none;" d="M323 144L323 447L328 447L328 144L323 144z"/>
<path style="fill:#eb0428; stroke:none;" d="M330 144C327.138 153.683 329 165.924 329 176L329 239L329 447L331 447L331 233L331 171C331 162.993 333.105 151.4 330 144z"/>
<path style="fill:#ffacc0; stroke:none;" d="M124 151C125.623 157.817 125 165.03 125 172L125 207C126.769 202.785 126 197.535 126 193L126 165C126 160.759 127.399 153.97 124 151z"/>
<path style="fill:#fea7b7; stroke:none;" d="M123 152L124 153L123 152z"/>
<path style="fill:#ba0723; stroke:none;" d="M124 152C122.079 169.47 124 188.361 124 206C106.361 206 87.4704 204.079 70 206C75.2165 208.189 82.3809 207 88 207L125 207L125 170C125 164.381 126.189 157.216 124 152z"/>
<path style="fill:#ffa2b5; stroke:none;" d="M122 153L123 154L122 153z"/>
<path style="fill:#ffaab7; stroke:none;" d="M121 154L122 155L121 154z"/>
<path style="fill:#dd072d; stroke:none;" d="M120 157C121.797 157 121.521 156.986 123 156L123 205C106.973 205 89.8218 206.728 74 204C76.9698 207.399 83.7586 206 88 206L124 206L124 154C122.051 154.936 121.45 155.392 120 157z"/>
<path style="fill:#ffa3b1; stroke:none;" d="M120 155L121 156L120 155z"/>
<path style="fill:#ff9eae; stroke:none;" d="M119 156L120 157L119 156z"/>
<path style="fill:#ea042a; stroke:none;" d="M122 156C111.707 166.372 101.336 176.664 91 187C85.5157 192.484 78.3092 197.904 75 205C90.841 203.98 107.111 205 123 205L123 172C123 166.92 123.981 160.72 122 156z"/>
<path style="fill:#ffa1b4; stroke:none;" d="M118 157L119 158L118 157z"/>
<path style="fill:#ce092c; stroke:none;" d="M72 206C79.2093 201.872 85.1297 193.87 91 188C100.921 178.079 112.958 168.52 121 157C114.642 159.965 109.912 166.088 105 171L84 192C79.6679 196.332 74.6137 200.395 72 206z"/>
<path style="fill:#ffa1b9; stroke:none;" d="M117 158L118 159L117 158z"/>
<path style="fill:#ff9eb6; stroke:none;" d="M116 159L117 160L116 159z"/>
<path style="fill:#ff9eb0; stroke:none;" d="M115 160L116 161L115 160z"/>
<path style="fill:#ffa1b5; stroke:none;" d="M114 161L115 162L114 161z"/>
<path style="fill:#ffa7be; stroke:none;" d="M113 162L114 163L113 162z"/>
<path style="fill:#ffa1b6; stroke:none;" d="M112 163L113 164L112 163z"/>
<path style="fill:#ffa2b1; stroke:none;" d="M111 164L112 165L111 164z"/>
<path style="fill:#ffa5b2; stroke:none;" d="M110 165L111 166L110 165z"/>
<path style="fill:#ffa3b1; stroke:none;" d="M109 166L110 167L109 166z"/>
<path style="fill:#ff9fae; stroke:none;" d="M108 167L109 168L108 167z"/>
<path style="fill:#ff9eae; stroke:none;" d="M107 168L108 169L107 168z"/>
<path style="fill:#ffa1b3; stroke:none;" d="M106 169L107 170L106 169z"/>
<path style="fill:#ffa8b9; stroke:none;" d="M105 170L106 171L105 170z"/>
<path style="fill:#ffa2b2; stroke:none;" d="M104 171L105 172L104 171z"/>
<path style="fill:#ff9fae; stroke:none;" d="M103 172L104 173L103 172z"/>
<path style="fill:#ffa3b1; stroke:none;" d="M102 173L103 174L102 173z"/>
<path style="fill:#ffa5b2; stroke:none;" d="M101 174L102 175L101 174z"/>
<path style="fill:#ffa1af; stroke:none;" d="M100 175L101 176L100 175z"/>
<path style="fill:#ff9fad; stroke:none;" d="M99 176L100 177L99 176z"/>
<path style="fill:#ffa2b1; stroke:none;" d="M98 177L99 178L98 177z"/>
<path style="fill:#ffa8bc; stroke:none;" d="M97 178L98 179L97 178z"/>
<path style="fill:#ffa2b6; stroke:none;" d="M96 179L97 180L96 179z"/>
<path style="fill:#ffa4b4; stroke:none;" d="M95 180L96 181L95 180z"/>
<path style="fill:#ffa8b4; stroke:none;" d="M94 181L95 182L94 181z"/>
<path style="fill:#ffa0ae; stroke:none;" d="M93 182L94 183L93 182z"/>
<path style="fill:#ff9ead; stroke:none;" d="M92 183L93 184L92 183z"/>
<path style="fill:#ff9aaa; stroke:none;" d="M91 184L92 185L91 184z"/>
<path style="fill:#ffa4b6; stroke:none;" d="M90 185L91 186L90 185M89 186L90 187L89 186z"/>
<path style="fill:#ff9aaa; stroke:none;" d="M88 187L89 188L88 187z"/>
<path style="fill:#ffa2b1; stroke:none;" d="M87 188L88 189L87 188z"/>
<path style="fill:#ffa6b3; stroke:none;" d="M86 189L87 190L86 189z"/>
<path style="fill:#ffa3af; stroke:none;" d="M85 190L86 191L85 190z"/>
<path style="fill:#ffa0b0; stroke:none;" d="M84 191L85 192L84 191z"/>
<path style="fill:#ff9bac; stroke:none;" d="M83 192L84 193L83 192z"/>
<path style="fill:#ffa4b8; stroke:none;" d="M82 193L83 194L82 193z"/>
<path style="fill:#ffa4b6; stroke:none;" d="M81 194L82 195L81 194z"/>
<path style="fill:#ff99a9; stroke:none;" d="M80 195L81 196L80 195z"/>
<path style="fill:#ff9db1; stroke:none;" d="M79 196L80 197L79 196z"/>
<path style="fill:#ffa4bb; stroke:none;" d="M78 197L79 198L78 197z"/>
<path style="fill:#ff9fb4; stroke:none;" d="M77 198L78 199L77 198z"/>
<path style="fill:#ff98ab; stroke:none;" d="M76 199L77 200L76 199z"/>
<path style="fill:#ff9ba9; stroke:none;" d="M75 200L76 201L75 200z"/>
<path style="fill:#ffa4b0; stroke:none;" d="M74 201L75 202L74 201z"/>
<path style="fill:#ffa4b4; stroke:none;" d="M73 202L74 203L73 202z"/>
<path style="fill:#ff9aad; stroke:none;" d="M72 203L73 204L72 203z"/>
<path style="fill:#ff9fb0; stroke:none;" d="M71 204L72 205L71 204z"/>
<path style="fill:#fba3b3; stroke:none;" d="M70 205L71 206L70 205z"/>
<path style="fill:#ffacbd; stroke:none;" d="M69 206C72.0857 209.531 79.5893 208 84 208L125 208C120.28 206.019 114.08 207 109 207C96.1878 207 81.4939 208.975 69 206z"/>
<path style="fill:#ff94aa; stroke:none;" d="M60 220C66.6777 222.802 76.7844 221 84 221L138 221C131.322 218.198 121.216 220 114 220L60 220z"/>
<path style="fill:#ff5978; stroke:none;" d="M138 220L139 221L138 220z"/>
<path style="fill:#e5798c; stroke:none;" d="M59 221L59 449C61.0851 444.031 60 437.35 60 432L60 398L60 278L60 239C60 233.381 61.1889 226.216 59 221z"/>
<path style="fill:#bd0627; stroke:none;" d="M60 223C68.9235 220.875 78.8661 222 88 222L138 222C132.538 219.708 124.887 221 119 221L79 221C73.9402 221 63.5077 218.986 60 223z"/>
<path style="fill:#fffffd; stroke:none;" d="M56 223C52.8289 228.942 54 236.404 54 243L54 282L54 395L54 430C54 436.239 53.2228 442.988 55 449C58.2279 444.739 57 438.162 57 433L57 395L57 274L57 240C57 234.65 58.0851 227.969 56 223z"/>
<path style="fill:#c90427; stroke:none;" d="M60 223L60 449L64 449C62.7516 448.315 62.4516 448.251 61 448L61 290L61 244C61 237.58 62.4972 228.951 60 223z"/>
<path style="fill:#db0d2b; stroke:none;" d="M92 261C97.4625 263.292 105.113 262 111 262L150 262L288 262C282.537 259.708 274.887 261 269 261L230 261L92 261z"/>
<path style="fill:#b60621; stroke:none;" d="M92 262C97.7073 264.395 105.846 263 112 263L153 263L297 263C291.293 260.605 283.154 262 277 262L236 262L92 262z"/>
<path style="fill:#ffafc1; stroke:none;" d="M92 263L92 276C93.5515 272.303 93 267.983 93 264L298 264C292.293 261.605 284.154 263 278 263L237 263L92 263z"/>
<path style="fill:#d22b4c; stroke:none;" d="M298 263L298 277C299.667 273.028 299.667 266.972 298 263z"/>
<path style="fill:#c4012b; stroke:none;" d="M91 264L91 276C92.5124 272.396 92.5124 267.604 91 264z"/>
<path style="fill:#ffffff; stroke:none;" d="M93 264L93 276L298 276L298 264L93 264z"/>
<path style="fill:#fffeff; stroke:none;" d="M94 274L290 274C288.256 268.909 283.665 270 279 270L247 270L132 270L105 270C100.551 270.002 96.4306 269.793 94 274z"/>
<path style="fill:#ff92a8; stroke:none;" d="M92 276C97.7073 278.395 105.846 277 112 277L153 277L298 277C292.293 274.605 284.154 276 278 276L237 276L92 276z"/>
<path style="fill:#be0525; stroke:none;" d="M92 277C97.7073 279.395 105.846 278 112 278L153 278L297 278C291.293 275.605 283.154 277 277 277L236 277L92 277z"/>
<path style="fill:#e9042b; stroke:none;" d="M93 278C98.4625 280.292 106.113 279 112 279L151 279L287 279C280.132 281.03 272.131 280 265 280L225 280L91 280L91 282C127.032 284.844 163.825 283 200 283L256 283C265.231 283 274.801 283.732 283.996 282.941C288.452 282.558 291.469 279.345 296 279C290.538 276.708 282.887 278 277 278L236 278L93 278z"/>
<path style="fill:#ec0529; stroke:none;" d="M91 304C91 305.797 91.0143 305.521 92 307C90.2167 307.98 90.4057 307.908 90 310C97.8164 306.248 105.434 307 114 307L148 307L240 307C256.261 307 273.99 305.028 290 308C288.515 302.924 282.416 304 278 304L243 304L91 304z"/>
<path style="fill:#df032b; stroke:none;" d="M92 308C97.7073 310.395 105.846 309 112 309L153 309L298 309C291.979 306.473 283.498 307 277 307L241 307L140 307L110 307C104.06 307 97.7251 306.308 92 308z"/>
<path style="fill:#d42a47; stroke:none;" d="M92 309C97.7073 311.395 105.846 310 112 310L153 310L298 310C292.293 307.605 284.154 309 278 309L237 309L92 309z"/>
<path style="fill:#ffaab4; stroke:none;" d="M92 310L92 323C93.5909 319.209 93.5909 313.791 92 310z"/>
<path style="fill:#ffffff; stroke:none;" d="M93 310L93 323L298 323L298 310L93 310z"/>
<path style="fill:#d22b48; stroke:none;" d="M298 310L298 323C299.591 319.209 299.591 313.791 298 310z"/>
<path style="fill:#c40227; stroke:none;" d="M91 311L91 324C92.5909 320.209 92.5909 314.791 91 311z"/>
<path style="fill:#e90329; stroke:none;" d="M80 320L80 322C82.4025 321.832 83.4602 321.803 85 320C87.2541 326.418 89.5745 329.424 96 332L96 327L252 327L281 327C285.146 327 290.931 325.984 294.826 327.603C298.345 329.067 299.5 332.575 300 336L302 336C301.863 331.372 299.968 327.476 299 323C294.073 325.74 288.484 325 283 325L252 325L137 325L106 325C102.278 325 96.5817 325.997 93.3179 323.821C90.7223 322.091 91.0324 318.732 91 316C87.2682 317.216 83.8227 319.134 80 320z"/>
<path style="fill:#b22739; stroke:none;" d="M92 323C97.7073 325.395 105.846 324 112 324L153 324L298 324C292.293 321.605 284.154 323 278 323L237 323L92 323z"/>
<path style="fill:#d30c2b; stroke:none;" d="M93 324C98.7073 326.395 106.846 325 113 325L154 325L298 325C292.293 322.605 284.154 324 278 324L237 324L93 324z"/>
<path style="fill:#ea042b; stroke:none;" d="M96 327L96 332C93.8262 330.776 91.8385 329.671 90 328C86.1508 329.542 85.7713 332.129 85 336C86.7833 335.02 86.5943 335.092 87 333C91.2376 333.523 95.3256 334.758 97 330C109.735 333.166 125.861 330.667 139 330.667L225.667 330.667L267 330.667C273.689 330.667 281.543 331.78 288 330C288.735 333.429 292.241 334.054 294 331L290 332L290 327L96 327z"/>
<path style="fill:#eb0428; stroke:none;" d="M97 330L97 334C112.279 332.131 128.604 333.667 144 333.667L235.333 333.667L269.333 333.667C275.028 333.667 281.498 334.517 287 333L287 331L286 330C274.805 331.37 262.944 330.333 251.667 330.333L186.333 330.333L127.667 330.333C117.638 330.333 106.934 331.385 97 330z"/>
<path style="fill:#c20323; stroke:none;" d="M91 355L91 371L297 371C291.293 368.605 283.154 370 277 370L236 370L92 370L92 356L298 356C292.293 353.605 284.154 355 278 355L237 355L91 355z"/>
<path style="fill:#fe7187; stroke:none;" d="M92 356L93 357L92 356z"/>
<path style="fill:#ffabb8; stroke:none;" d="M93 356C98.7073 358.395 106.846 357 113 357L154 357L298 357C292.293 354.605 284.154 356 278 356L237 356L93 356z"/>
<path style="fill:#d22b49; stroke:none;" d="M298 356L298 370C299.667 366.028 299.667 359.972 298 356z"/>
<path style="fill:#ffaebe; stroke:none;" d="M92 357L92 370L298 370C292.293 367.605 284.154 369 278 369L237 369L93 369C93 365.017 93.5515 360.697 92 357z"/>
<path style="fill:#fffffd; stroke:none;" d="M93 357L93 369C100.723 367.161 109.1 368 117 368L157 368L286 368C280.784 365.811 273.619 367 268 367L229 367L95 367L96 361C102.584 362.946 110.166 362 117 362L157 362L288 362L288 360L95 360C101.868 357.97 109.869 359 117 359L157 359L290 359C284.784 356.811 277.619 358 272 358L234 358L145 358C127.773 358 110.092 359.16 93 357z"/>
<path style="fill:#ffffff; stroke:none;" d="M96 357C101.462 359.292 109.113 358 115 358L154 358L290 358C283.132 360.03 275.131 359 268 359L228 359L95 359C100.216 361.189 107.381 360 113 360L152 360L288 360L288 362L159 362L119 362C111.409 362 103.422 362.767 96 361L95 367L286 367C279.416 368.946 271.834 368 265 368L225 368L94 368C99.7073 370.395 107.846 369 114 369L155 369L298 369L298 357L96 357z"/>
<path style="fill:#e57786; stroke:none;" d="M345 362C352.879 365.306 365.466 363 374 363L440 363C432.121 359.694 419.534 362 411 362L345 362z"/>
<path style="fill:#eb032a; stroke:none;" d="M96 378L96 380L292 380L292 383C269.111 380.107 245.074 382 222 382L97 382C97 383.797 97.0143 383.521 98 385C119.081 382.421 141.752 384.667 163 384.667C206.671 384.667 250.373 384.811 294 384C292.544 377.019 286.981 378 281 378L247 378L96 378z"/>
<path style="fill:#d50a2c; stroke:none;" d="M92 401C97.7073 403.395 105.846 402 112 402L153 402L298 402C292.293 399.605 284.154 401 278 401L237 401L92 401z"/>
<path style="fill:#be0524; stroke:none;" d="M91 402L91 416C92.6668 412.028 92.6668 405.972 91 402z"/>
<path style="fill:#b3253b; stroke:none;" d="M92 402C97.7073 404.395 105.846 403 112 403L153 403L298 403C292.293 400.605 284.154 402 278 402L237 402L92 402z"/>
<path style="fill:#fbadb5; stroke:none;" d="M92 403L92 416C93.5909 412.209 93.5909 406.791 92 403z"/>
<path style="fill:#ffffff; stroke:none;" d="M93 403L93 416L298 416L298 403L93 403z"/>
<path style="fill:#d42a47; stroke:none;" d="M298 403L298 416C299.591 412.209 299.591 406.791 298 403z"/>
<path style="fill:#e9052a; stroke:none;" d="M89 416C90.565 418.486 89.8499 420.618 93 421L91 422C98.3136 426.844 105.514 426 114 426L148 426L288 426C285.12 421.923 279.546 423 275 423L240 423L96 423L96 419L231 419L273 419C281.977 419 291.145 419.644 300 418C294.538 415.708 286.887 417 281 417L240 417L144 417C125.798 417 107.059 418.282 89 416z"/>
<path style="fill:#d62b44; stroke:none;" d="M92 416C97.7073 418.395 105.846 417 112 417L153 417L298 417C292.293 414.605 284.154 416 278 416L237 416L92 416z"/>
<path style="fill:#eb032a; stroke:none;" d="M84 418L84 426C88.9899 427.112 93.8803 429.296 99 429.871C120.436 432.278 143.419 430 165 430L288 430L288 427L162 427L121 427C114.229 427 106.734 427.906 100.043 426.853C96.603 426.311 94.4755 423.582 91 423L93 422C90.1392 420.22 87.2676 418.814 84 418z"/>
<path style="fill:#e1082d; stroke:none;" d="M61 447C67.9187 449.903 78.5202 448 86 448L141 448L331 448C324.081 445.097 313.48 447 306 447L251 447L61 447z"/>
<path style="fill:#be0624; stroke:none;" d="M64 448C70.9187 450.903 81.5202 449 89 449L143 449L331 449C324.081 446.097 313.48 448 306 448L252 448L64 448z"/>
<path style="fill:#ff90a4; stroke:none;" d="M59 449C65.9187 451.903 76.5202 450 84 450L139 450L332 450C325.081 447.097 314.48 449 307 449L252 449L59 449z"/>
<path style="fill:#feffff; stroke:none;" d="M55 456C57.4296 457.347 59.3627 459.147 62 460L60 461C61.506 461.683 62.3148 461.826 64 462L64 458L240 458L294 458C302.607 458 312.72 459.448 321 457C314.322 454.198 304.216 456 297 456L244 456L60 456L60 452C56.9868 452.508 56.127 453.159 55 456z"/>
<path style="fill:#fffffd; stroke:none;" d="M64 455C70.6777 457.802 80.7844 456 88 456L142 456L330 456L330 454L148 454L92 454C83.0989 454 72.5613 452.469 64 455z"/>
<path style="fill:#fffeff; stroke:none;" d="M64 458L64 460C151.584 460 239.451 457.96 327 460L326 464L330 464C330.046 462.023 330.255 460.823 331 459C321.767 455.979 312.686 458 303 458L248 458L64 458z"/>
</svg>
