<?xml version="1.0" encoding="utf-8"?>
<!-- Generator: Adobe Illustrator 16.0.3, SVG Export Plug-In . SVG Version: 6.00 Build 0)  -->
<!DOCTYPE svg PUBLIC "-//W3C//DTD SVG 1.1//EN" "http://www.w3.org/Graphics/SVG/1.1/DTD/svg11.dtd">
<svg version="1.1" id="Capa_1" xmlns="http://www.w3.org/2000/svg" xmlns:xlink="http://www.w3.org/1999/xlink" x="0px" y="0px"
	 width="171px" height="171px" viewBox="0 0 171 171" enable-background="new 0 0 171 171" xml:space="preserve">
<path fill="#EA0027" d="M42.142,61.85c-10.889,0-19.708-8.82-19.708-19.708c0-10.889,8.82-19.708,19.708-19.708
	c10.888,0,19.708,8.82,19.708,19.708C61.85,53.03,53.03,61.85,42.142,61.85z M132.8,61.85c-10.89,0-19.708-8.82-19.708-19.708
	c0-10.889,8.818-19.708,19.708-19.708s19.708,8.82,19.708,19.708C152.508,53.03,143.688,61.85,132.8,61.85z M6.667,96.018
	c0-14.509,11.775-26.285,26.286-26.285h10.52c3.917,0,7.637,0.862,10.987,2.39c-0.321,1.773-0.468,3.621-0.468,5.494
	c0,9.41,4.138,17.859,10.667,23.648c-0.049,0-0.098,0-0.172,0H11.914C9.032,101.266,6.667,98.9,6.667,96.018z M106.514,101.266
	c-0.048,0-0.1,0-0.173,0c6.554-5.789,10.668-14.238,10.668-23.648c0-1.873-0.172-3.695-0.468-5.494
	c3.35-1.552,7.07-2.39,10.986-2.39h10.52c14.512,0,26.286,11.775,26.286,26.285c0,2.908-2.364,5.248-5.247,5.248H106.514z
	 M109.15,77.616c0,13.058-10.594,23.649-23.65,23.649c-13.057,0-23.65-10.593-23.65-23.649c0-13.057,10.593-23.65,23.65-23.65
	C98.557,53.966,109.15,64.56,109.15,77.616z M38.2,141.988c0-18.131,14.707-32.838,32.839-32.838h28.922
	c18.132,0,32.839,14.707,32.839,32.838c0,3.621-2.931,6.578-6.577,6.578H44.778C41.156,148.566,38.2,145.635,38.2,141.988z"/>
</svg>
