<?xml version="1.0" standalone="no"?>
<!DOCTYPE svg PUBLIC "-//W3C//DTD SVG 20010904//EN"
 "http://www.w3.org/TR/2001/REC-SVG-20010904/DTD/svg10.dtd">
<svg version="1.0" xmlns="http://www.w3.org/2000/svg"
 width="432.547092pt" height="432.417504pt" viewBox="0 0 432.547092 432.417504"
 preserveAspectRatio="xMidYMid meet">
<metadata>
Created by potrace 1.12, written by Peter Selinger 2001-2015
</metadata>
<g transform="translate(-33.497985,464.975709) scale(0.100000,-0.100000)"
fill="#ea0027" stroke="none">
<path d="M2237 4635 c-489 -59 -941 -282 -1285 -633 -323 -330 -523 -729 -598
-1197 -25 -152 -25 -476 -1 -633 139 -885 765 -1572 1634 -1791 166 -42 289
-55 508 -55 225 -1 337 12 528 60 883 221 1535 976 1627 1883 101 1007 -516
1956 -1478 2271 -305 99 -626 132 -935 95z m438 -1325 c437 -40 861 -206 1207
-472 94 -73 341 -307 360 -342 9 -16 -5 -34 -93 -123 -220 -222 -405 -357
-664 -483 -819 -400 -1720 -291 -2455 297 -99 78 -290 264 -290 281 0 18 120
151 206 227 123 110 171 147 289 227 441 298 944 433 1440 388z"/>
<path d="M2085 3044 c-332 -69 -658 -227 -920 -446 -145 -121 -142 -102 -33
-198 194 -170 468 -327 715 -409 121 -40 370 -97 381 -86 3 3 -1 5 -10 5 -28
0 -140 84 -198 148 -106 117 -162 266 -163 427 0 159 57 311 160 425 53 58
147 130 195 150 38 15 -1 10 -127 -16z"/>
<path d="M2820 3039 c30 -17 89 -67 132 -109 123 -125 182 -268 182 -445 0
-111 -15 -177 -64 -280 -45 -95 -132 -195 -221 -254 -72 -48 -62 -50 81 -16
364 88 752 294 963 513 l39 40 -51 47 c-269 252 -668 455 -1014 515 -34 6 -71
13 -82 16 -11 3 5 -9 35 -27z"/>
<path d="M2349 2867 c-165 -69 -259 -208 -259 -382 0 -163 83 -296 230 -368
61 -30 71 -32 175 -32 104 0 114 2 175 32 309 152 309 589 0 737 -57 27 -77
31 -165 34 -86 2 -108 -1 -156 -21z"/>
</g>
</svg>
